<?xml version="1.0" encoding="UTF-8"?>
<svg id="Layer_1" data-name="Layer 1" xmlns="http://www.w3.org/2000/svg" viewBox="0 0 465.15 162.93">
  <path d="M345.85,89.63c.29,3.46-5.22,3.08-7.7,2.95-8.92-.46-15.61-3.14-22.87-8.09-3.54-2.42-7.42-6.57-10.99-8.48-7.85-4.19-13.7-3.79-19.81-12.14-19.28-26.35,10.92-60.17,38.41-43.34,18.54,11.35,20.09,38.95,1,50.29-1.93,1.15-5.73,2.19-6.94,3.05-.6.43-.65.72-.45,1.42,6.92,6.2,14.09,10.72,23.22,12.74,2.09.46,4.04-.23,6.13,1.61ZM305.34,20.38c-23.79,2.62-22.53,44.95-2.87,50.47,32.67,9.17,36.06-54.13,2.87-50.47Z"/>
  <path d="M68.46,66.42c-8.57,10.64-18.5,8.72-30.5,8.66-5.98-.03-14.42.75-20.03.04-1.11-.14-2.9-.8-1.76-2.29,1.42-1.85,4.26-.65,6.02-1.98,2.77-2.07,1.03-7.63.98-10.45-.15-8.63-.13-17.35,0-25.98.05-3.34,2.36-12.42-2.25-13.17-1.81-.29-4.18.75-5.13-1.35l.54-1.54c1.6-1,3.05-.11,4.59-.11,17.68.09,40.78-4.6,51.64,13.28,6.69,11.02,3.65,25.24-4.11,34.87ZM31.73,22.26l-.16,47.23c.28.54.69.99,1.25,1.25,1.52.69,14.19.59,16.61.36,18.98-1.76,22.68-31.74,10.76-43.15-6.87-6.58-14.52-5.7-23.26-5.7-1.68,0-3.3-.72-5.2,0Z"/>
  <path d="M406.61,75.1l-.79-1.25.53-1.5c1.72-1.71,6.29.79,6.97-3.51.09-13.46,0-26.92,0-40.39,0-2.16,1-3.79-.54-6.15l-6.45-.79-.41-2.7c1-.52,2.06-.53,3.16-.59,7.82-.45,15.78.39,23.51.52,3.95.07,7.54.07,11.39-.92,1.01.24,1.52,1.87,1.72,2.79.37,1.69,1.17,9.22.92,10.62-.12.69-.44,1.61-1.12,1.95-3.95,1.34-3.07-7.94-5.71-9.66-2.97-1.93-13.59.69-17.61-.29-.33.1-.84,1.13-.84,1.26v17.46l.75.75h14.49c2.43-1.92.72-8.7,5.01-7,.5,4.06.16,8.18.22,12.25.04,2.51.86,4.92.02,7.71-4.4,1.41-3.1-7.98-5.74-7.98h-14.24c-.45,5.62-1.03,12.61-.52,18.23.23,2.5,1.04,3.91,3.76,4.23,3.09.36,11,.76,14.02.51,8.73-.73,4.27-8.65,7.44-11.03,3.11-2.32,2.84,3.58,2.77,5.27-.07,1.82-.27,6.43-.6,7.88-.13.59-1.25,2.35-1.64,2.35h-40.46Z"/>
  <path d="M364.85,20.69c-2.76,1.16-6.54-.54-7.95,2.78l.12,37.79c2.15,13.69,33.06,14.59,34.79-1.44.92-8.57.67-24.59.08-33.37-.09-1.3-.55-2.54-.52-3.86-.5-1.29-5.27-1.32-6.53-1.57l-.4-2.71c.45-.72,9.39-.01,11.19-.04,2.85-.05,9.67-2.29,9.15,2.41-2.93,1.96-6.78-1.06-8.09,3.14-1,3.19-.4,13.65-.36,17.65.08,7.23,1.98,18.42-1.39,25-6.35,12.4-39.34,13.26-44.79-.34-4.44-11.09-.26-30.97-1.77-43.12-.72-3.85-7.48.53-7.01-3.95.11-.5,2.59-1.24,3.26-1.31,3.34-.37,8.65.6,12.53.53,1.9-.03,5.99-1.43,7.27.18l.41,2.25Z"/>
  <path d="M131.86,49.66c-.71.44-.69.99-.77,1.72-.29,2.47-.33,16.97.25,18.75,1.06,3.25,9.17-.52,8.54,4.48-.7.64-1.59.98-2.53,1.01-3.03.11-7.85-.99-11-1.05-1.3-.02-14.78,2.2-10.49-2,1.88-1.84,4.91-.15,6.79-1.81l.43-46.26c-.62-4.49-2.87-2.89-6.09-3.42-.65-.11-1.52-.22-1.39-1.11l.33-1.3c3.23-1.25,6.81,0,9.93.07,9.47.21,20.95-2.32,27.45,6.01s3.26,18.42-5.68,22.67c-1.03.49-5.99,2.23-6.76,2.23h-8.99ZM131.11,23.48v22.19c4.61,1.07,10.54.97,13.99-2.74,5.34-5.76,3.49-17.28-4.39-19.56-1.76-.51-8.96-2.16-9.6.11Z"/>
  <path d="M251.49,44.67l12.92-20.82c.64-3.92-4.29-1.7-5.07-3.76-1.29-3.4,7.09-1.81,8.4-1.8,3.15,0,8.1-2.17,10.09,1.2l-.47,1.13c-2.55.91-5.35.57-7.09,3.14l-16.01,25.91c-1.82,6.45.3,13.1-.24,19.68.66,3.5,8.62.15,9,4.03.41,4.21-8.13,1.77-10.24,1.7-3.99-.13-9.04.81-12.5.52-1.26-.1-2.7-.49-3.52-1.49-1.43-2.79,2.63-3.37,4.52-3.5,1.51-.1,3.11,1.5,4.02-1.47.59-1.91.5-14.8.11-17.11-.7-4.08-9.98-16.37-12.78-20.66-1.76-2.69-3.73-7.93-6.55-9.42-1.18-.62-5.64-1.24-3.82-3.74,1.33-1.82,8.3.09,10.54.07,3.49-.03,7.31-2.12,10.51-.06,1.37,5.24-6.38.87-5.69,5.63l13.89,20.82Z"/>
  <path d="M195.55,70.36c1.65,2.17,7.02,1.07,8.5,2.49l.46,1.45-1.83,1.19c-5.79-.46-11.58-.42-17.39-.42-1.22,0-9.03,1.24-6.5-2.49,1.48-2.19,8.04,1.77,8.71-3.77-.64-13.47,1.06-28.03.08-41.37-.12-1.58-.55-3.17-.74-4.75-.57-.85-8.85-.45-10.54-.45-.87,0-1.73-.44-2.48-.42-6.6.15-3.41,8.57-5.99,10.87-1.86,1.67-3.07-.36-3.27-2.24-.15-1.5.78-8.65,1.13-10.36.78-3.9,2.27-2.35,4.61-2.33,12.49.1,27.42,1.25,39.48.47,1.72-.11,6.16-2.13,7.25-.12.4.73.97,6.54,1.02,7.84.08,1.94.83,7.53-1.75,7.27-2.43-.24-1.89-6.23-3.05-8.46-.19-.36-2.29-2.53-2.46-2.53h-14.49l-.75.75v47.38Z"/>
  <path d="M82.65,74.59c-.77-3.44,6.53-2.25,7.41-3.57,1.29-4.12.1-8.15.06-12.11-.14-11.15.3-22.26.48-33.39-.28-4.33-4.82-3.6-7.9-4.82-.4-5.18,7.15-2.07,10.25-2,2.56.06,12.28-2.47,13.1.4,1.32,4.55-6.96-.84-7.87,5.44-1.89,13.13,1.68,29.86-.5,43.29.17,6.82,7.32,1.71,8.43,6.49-2.22,2.33-5.2.81-7.71.77-2.24-.04-15.18.39-15.75-.49Z"/>
  <path d="M247.83,119.66c2.49,2.46,2.23,7.8.1,10.48-1.21,1.53-3.07,1.52-2.33,3.95.15.48,5.22,7.99,5.62,8.36,1.29,1.2,2.91,1.13,4.05,2.45.06,3.36-6.24,1.73-7.9.53-2.67-1.93-5.7-11.54-8.68-11.85-4.27-.45-2.7,7.56-2.09,10.26l3.41.59-.58,1.91-11.42-.16-.48-1.5c.25-.85,2.34-.61,3.05-1.45,1.36-1.62-.12-19.03.47-22.42l-3.3-1.83.36-1.92c2.27-.55,4.49.47,6.66.47,1.96,0,3.51-.69,5.94-.48,2.02.18,5.68,1.16,7.13,2.6ZM236.01,130.96c2.81-.12,7.05.94,8.22-2.52,1.99-5.86-2.83-10.41-8.22-7.71v10.22Z"/>
  <path d="M194.55,146.42l-.05-2.15,2.09-1.19,10.92-25.75c.58-.7,2.58-.88,3.08-.02l9.25,24.06c.49.77.96,1.75,1.7,2.29,1.06.77,3.18.39,2.49,2-.6,1.4-9.68.69-11.5.51l-.48-1.5,2.5-1c1.31-.86-1.75-8.34-3.76-8.72-1.68-.32-6.44-.26-7.59,1.13-.58.71-3.1,6.7-2.59,7.29l2.94,1.06c.49.66-1.39,1.99-1.75,1.99h-7.24ZM208.53,125.47c-1.15-1.07-3.53,5.37-3.47,6.18.36,1.24,5.17,1.18,5.45.02l-1.98-6.2Z"/>
  <path d="M171.57,146.42l-.28-1.51,3.16-1.6c.36-.48.48-1.08.57-1.66.58-4.07.45-14.69.07-18.95-.44-4.83-3.22-1.75-3.52-5.21,4.52-1.16,19.12-.77,20.38,4.84,1.06,4.72-.91,9.64-5.88,10.88-1.98.5-5.79-.53-6.41,1.58-.34,1.14-.22,5.01-.12,6.41.33,4.5,1.63,1.72,3.81,3.2.97.66.28,1.1.21,2.02h-11.99ZM179.56,130.96c5.18.81,8.99-2.17,7.39-7.63-.62-2.12-5.75-4.14-7.39-2.1v9.73Z"/>
  <path d="M297.95,124.98c-3.04.76-2.12-2.42-3.48-4.26-2.98-4.02-11.03.14-9.24,4.73,1.67,4.28,13.05,4.03,14.19,10.77,1.93,11.42-11.06,12.2-18.91,9.15.34-1.68-1.62-7.15.21-7.93.38-.16.95-.14,1.29.3.87,1.1.94,3.53,2.49,4.9,4.53,4.01,13.39.69,10.05-5.55-2.41-4.5-12.2-3.32-13.46-9.99-.93-4.89,1.79-9.22,6.74-9.99,1.44-.23,7.69-.41,8.79-.04,2.08.7,1.14,6.09,1.33,7.9Z"/>
  <path d="M273.48,144.43l-.22,1.52c-.49.67-8.62.66-10.04.5-.73-.08-1.29-.06-1.72-.78-.39-2.43,2.15-1.36,2.92-1.81,1.4-.84-.09-18.66.91-21.55-.24-3.6-4.05-1.7-3.83-4.8,1.76-1.06,3.31.05,4.74,0,2.28-.09,5.45-1.72,7.24.75.32,1.54-2.86.82-3.4,2.58-.8,7.45-.59,14.83-.03,22.28l3.43,1.32Z"/>
</svg>