<?xml version="1.0" encoding="UTF-8"?>
<svg id="Layer_1" data-name="Layer 1" xmlns="http://www.w3.org/2000/svg" viewBox="0 0 94.97 96.88">
  <path d="M15.27,69.55c.78-4.94,4.93-7.41,9.23-9.23,3.19-1.35,12.81-4.51,16.02-4.93,2.55-.34,4.35.5,6.45.49,7.82-.06,10.07.15,17.7,2.72,7.12,2.4,14.1,4.25,14.99,12.95.22,2.13.67,7.22-2.21,7.25-20.4-.1-40.57.32-60.92-.03l-1.25-.75c.29-2.63-.39-5.96,0-8.47Z"/>
  <path d="M46.6,18.06c9.12-1.25,13.84,11.12,12.97,18.46-.97,8.19-5.48,16.15-14.98,14.22-2.16-.44-5.18-3.8-6.35-5.63-5.43-8.52-3.92-25.37,8.36-27.05ZM52.54,47.19c3.84-3.27,5.52-11.59,4.51-16.38-1.38-6.58-6.21-12.85-13.49-9.28-8.55,4.2-7.72,22.1.31,26.43,2.71,1.46,6.25,1.29,8.67-.77Z"/>
</svg>