<?xml version="1.0" encoding="UTF-8"?>
<svg id="Layer_1" data-name="Layer 1" xmlns="http://www.w3.org/2000/svg" viewBox="0 0 94.97 96.88">
  <path d="M65.28,71.97c-3.37-3.42-7.73-5.96-10.57-9.97-2.09,1.09-3.78,2.13-6.14,2.7-20.59,4.95-36.9-12.59-28.98-32.42,4.39-11,20.2-16.86,30.81-11.95,13.22,6.12,18.54,21.97,11.15,34.72,3.56,3.95,7.35,8.04,11.58,11.33l4.29,5.7-6.25,6.25c-.79,0-3.77-3.2-4.51-3.99s-.9-1.87-1.39-2.36ZM37.37,21.13c-13.48,1.83-20.23,16-16.7,28.38,3.76,13.2,21.99,17.82,32.96,10.77,11.97-7.7,12.11-26.95.49-35.2-5.3-3.76-10.22-4.83-16.75-3.95Z"/>
</svg>