<?xml version="1.0" encoding="UTF-8"?>
<svg id="Layer_1" data-name="Layer 1" xmlns="http://www.w3.org/2000/svg" viewBox="0 0 201.75 250.64">
  <path d="M18.82,207.64c9.91,18.9,26.72,31.32,47.49,36.09,9.79,2.25,19.68,2.44,29.53,3.89.56.08,2.33.18,2.3.93-15.66,1.15-33.03-1.82-47.37-8.25C3.41,219.1,1.06,156.85,2.38,112.09,3.69,67.55,10.93,21.88,59.34,6.89,81.01.18,109.3.89,131.58,4.76c62.66,10.89,69.38,75.47,67.86,128.29-1.12,38.7-6.81,88.04-46.58,106.12-15.56,7.07-33.15,9.93-50.22,9.39-.47-1.33,2.45-1.31,3.3-1.43,8.95-1.31,18.1-.92,27.13-2.8,21.12-4.39,39.28-16.62,49.67-35.67l-.53-1.02H18.82ZM78.18,113.82V44.95c1.74.68.57,2.8,1.24,3.98l2.75-.49-.02-2.97-2.97-.53c-.05-.73,1.79-.88,2.3-.93,7.98-.81,17.7-.25,25.9-.54,3.79-.14,8.12-.64,11.93-1.01.72.05,2.58,1.13,3.1,1.65.85.85,5.95,7.46,6.35,8.37,2.14,4.83.25,16.56.28,22.13.04,8.82.66,17.62.54,26.5-.05,3.61.31,9.81-.08,12.9-.72,5.71-4.05,2.77-7.71,1.28l-1.7,1.51c2.39-.45,2.38,2.27,3.12,2.87.41.33,1.44.27,2.06.67,2.65,1.73.76,8,.76,10.68,0,1.64.93,3.45.54,5.25,4.94.78,9.64-1.37,14.47-.75-4.17,2.02-9.57,1.48-14.14,2.23-.25.07-.82,1.63-.82,1.77v66.62h15.47c-1.26-2.24-.06-4.51.02-6.72.71-20.58-.59-41.29,0-61.88l.97-1.27c.99,3.91.02,7.53-.03,11.21-.02,2,.53,3.63.55,5.48.21,17.71.13,35.51-.53,53.18h4c-.23-2.13.3-4.72.02-6.76-.2-1.49-1.24-2.68-1.33-4.55-.44-9.21,3.36-16.5,2.8-25.86s-3.11-18.03-3.48-26.96c-.08-2.04.06-3.76.49-5.73l-2.5-.99,7.73-.53c9.07,2.64,18.86,1.9,28.18,3.53l.53,67.84,4.95.52c6.39-15.28,10.54-31.71,12.43-48.22,2.97-25.99,2.46-62.5-3.18-88.03C180.79,14.28,141.89,1.9,88.92,4.03,34.93,6.21,13.25,33.41,5.92,84.7c-4.46,31.2-3.73,83.25,8.03,112.6.81,2.03,2.76,7.05,3.93,8.55s4.73.78,6.47.58c.76-.53.55-11.63.46-13.5-.26-5.06-.52-8.16-.47-13.46.2-19.88-.4-39.79.22-59.66,4.48-3.36,9.94-2.05,14.97-2.5,2.24-.2,4.75-.8,6.99-.99,10.55-.92,21.15-1.44,31.68-2.5ZM120.09,43.95l-31.92,1.5c-.37,6.27.47,13.02.01,19.23-.16,2.17-1.37,5.4-1.38,7.06,0,1.04,1.02,1.92.92,3.4-.08,1.1-.95,1.7-1,2.46-.19,3.16,1.9,6.54,2.33,8.51,1.28,5.99-.39,12.6-.89,18.46-.23,2.65.17,5.56,0,8.24,3.56-.06,7.14-.9,10.73-.51,2.14.24,4.09,1.32,6.46,1.52,1.84.16,14.06.16,14.68-.57l.05-69.31ZM128.07,115.82v-61.63c0-.98-5.18-7.34-6.49-8.23v67.12c0,.07.54,1.12.6,1.16l5.89,1.59ZM80.17,83.37c-.16-2.22,2.1-4.84,2.26-6.72.29-3.33-.92-6.89-1.25-10-.41-3.81.13-8.14-1.75-11.73l.74,28.45ZM79.68,102.84v10.98l2.53-.78c-.48-3.67,1.5-8.19-2.53-10.2ZM96.14,113.82l-58.65,4.96c-.79,1.13.07,23.48-.2,27.25-.19,2.63-1.53,6.19-1.51,8.47.01,1.5,1.03,3,.96,4.45-.07,1.55-1.44,2.6-1.49,4-.14,4.8,3.82,14.46,4.03,20.96.18,5.7-1.45,9.2-2.03,13.98-.32,2.71.26,5.97.01,8.75l59.37-.5-.5-92.33ZM98.14,206.15h23.45v-87.83s-23.69-4.5-23.69-4.5l.24,92.33ZM29.3,119.31l-4,.51.51,3.49,3.46-.52.03-3.47ZM125.08,206.15c-.03-8.07.03-16.15.02-24.23-.01-14.74-.77-29.59-.54-44.42.04-2.44,1.44-14.96.05-15.97l-1.52-.22-.5,84.84h2.5ZM25.8,131.79v38.93l3.85-9.29c.19-7.55-2.26-14.72-1.91-22.34l-1.93-7.3ZM176.96,139.77l-22.95-2.49c-.23,2.27,2,1.99,2.93,3.3,2.65,3.71-1.55,13.12-1.44,17.66,4.63-2.71,10.33-1.23,12.46,3.75.1,1.47-.58.43-.91-.09-.73-1.11-.63-1.58-1.9-2.59-2.69-2.14-8.79-2.64-10.27,1.05-.59,1.45-.58,13.49-.37,15.59.14,1.41.71,5.33,2.48,4.25.73,1.74-1.02,1.94-1.05,2.72-.11,3.13.79,4.35,3.84,4.72,7.55.9,8.83-6.25,9.18-12.19.22-3.79-.39-7.46-.49-11.22l.5,2.5.99-.51c-.85,4.64-.73,9.81,0,14.47l-.99-.99-2.1,7.38c-3.75,1.23-6.48,2.41-10.38.6v10.73c0,1.21-2.53,5.63-2,7.74h22.45v-66.37ZM25.8,195.66v10.23l3.49.75-.11-8.39-3.39-2.6Z"/>
  <path d="M134.06,180.19l-2.99-.28c-2,1.67-1.84,5.13,1.23,4.78,1.62-.19,1.15-1.59,2.26-2-.08,4.18-3.06,4.35-5.48,1.5l-1,2.49c-.39-1.29,1.39-6.64,2.11-7.37.85-.86,4.11-1.17,3.87.88Z"/>
  <path d="M134.56,200.15l-3-.5.46-1.71-1.95-.78.49,3.25-.98.24-.5-4.99c2.05.52,3.73,1.08,5.48-.5v4.99Z"/>
  <path d="M129.57,145.26c1.07.37,3.14.26,4.15,0,.63-.16,0-1.2.83-.99.04,2.48.78,8.63-3.22,8.01-2.53-.4-1.63-5.17-1.76-7.01ZM134.06,146.26l-3.96.53c-1.03,6.26,4.89,4.89,3.96-.53Z"/>
  <path d="M131.56,159.73l-1.99.5v-1.99s4.98-.5,4.98-.5c.85,4-2.09,7.74-2.99,1.99Z"/>
  <path d="M134.55,187.18v1.99c-6.36-2.78-6.35,6.36,0,3.49v1.5s-4.18-.51-4.18-.51c-1.46-1.08-1.22-3.94-.56-5.49l4.75-.98Z"/>
  <path d="M134.45,173.11c-.18.33-2.11.69-1.87,1.81.22,1.03,2.69.96,1.97,2.79-1.63-1.01-3.19-3.35-4.98-1.5v-2.49c2.23,1.38,3.19-1.31,4.74-2.49.48.21.33,1.54.14,1.89Z"/>
  <path d="M134.56,163.73c-.38,2.08.98,5.62-.99,6.98l.49-2.99h-3.67s-.81.99-.81.99v-2.49s4.49.5,4.49.5l-.49-2.75.99-.24Z"/>
  <path d="M48.46,141.97c5.27-6.72,18.14-7.31,22.95.34,3.96,6.3,3.55,28.94.99,35.94-4.67,12.77-22.45,13.85-26.78.34-2.57-8.02-2.52-29.77,2.84-36.61ZM49.43,183.51c6.6,6.4,17.3,4.08,21.22-4.12,3.13-6.54,3.55-24.81,1.9-31.74-2.88-12.08-19.12-13.16-24.49-2.84-4.12,7.91-5.3,32.22,1.37,38.69Z"/>
  <path d="M89.16,74.14c.12-.89,2.08-6.09,2.64-6.59.7-.63,4.66-2.35,5.71-2.52,3.27-.52,7.57-.25,10.06,2.18,4.67,4.56,4.95,25.05-4.44,26.15,2.65-2.11,4.91-3.23,5.95-6.77.86-2.91,1-10.78.42-13.82-.7-3.63-3.39-6.42-7.12-6.85-12.76-1.48-12.63,8.05-12.55,17.59,0,.66.44,1.1-.68,1.37.32-3.37-.44-7.46,0-10.73Z"/>
  <path d="M100.57,82.93l-3.23.97-.98-1.04-1.2.52v-4.49c1.5-.03.82,1.23,2.74,1.5,1.64.23-.28-1.21.5-1.5l1.25,1.75-3,.49c-.85.48.12,1.34.52,1.52,1.25.53,2.02-.21,3.18-.22.86,0,1.93.91,2.84.23l.95-2.02-1.49-.74,2.24-1.49c1.14-.04.24,3.71-.2,4.28-.7.9-4.18,2.62-4.11.25Z"/>
  <path d="M102.62,92.86c.6,1.32-2.71,1.31-3.32,1.3-2.53-.03-6.72-1.1-7.64-3.8,3.05,2.42,7.15,3.92,10.97,2.5Z"/>
  <path d="M107.12,150.25c.29,1.34,3.6,2.73,5,1.75,4.55-6.82-6.73-9.73-5-1.75-.01-.04-.46-.03-.52-.74-.2-2.34.43-5.63,3.27-5.8s2.35,2.21,4.23,3.54l1.5-3.99c.94,4.97-5.68,17.47-8.47,6.98Z"/>
  <path d="M113.61,200.66l-1.21-1.04-5.77.54c-.06-2.84-.57-10.24,3.7-9.97,1.22-.28,3.28,2.51,3.28,3.24v7.24ZM113.11,198.16c1.43-7.68-6.76-8.54-5.78-.47l5.78.47Z"/>
  <path d="M109.56,175.74l1.13,4.36,2.41.59.5-1.5v3.99c-.82.21-.22-.87-.82-1.01-1.63-.37-4.55-.45-6.16,0l.6-5.87,2.34-.57Z"/>
  <path d="M113.61,131.79c-.86.09-.42-1.13-1.31-1.43-1.24-.42-4.33-.45-5.67-.06v-6.2s1.99-.28,1.99-.28c.48,1.34-.89.79-1,1.32-.2.93.12,2.17.01,3.17h1.67s.57-1,.57-1l1.49,1.54c2.64.02,2.08-3.02.76-4.53h1.5s0,7.48,0,7.48Z"/>
  <path d="M113.03,158.62l.57-.88v3.99c-1.08-.54-.76-2.1-2.63-1.41l-4.35,3.41v-3.49c3.56.9,3.89-3.15.07-3.56l-.07-2.42c1.91,1.65,3.26,5.03,6.4,4.38Z"/>
  <path d="M106.62,164.72h1.49c-2.18,4.91.34,3.76,4.26,4.55l1.22-1.05v3.24c-.61.86-.3-.54-.86-.73-.97-.32-3.89-.77-4.79-.54-1.6,1.65-.46,2.65.66,4.01-.56.21-2-.21-2-.74v-8.73Z"/>
  <path d="M113.03,141.7l-6.41.07v-2.99c1.62,1.2,3.64,1.58,5.65,1.52,2.9-5.07-1.01-7.44-5.65-6.02v-2.49c1.81,1.7,5.06.41,6.43,2.8,1.03,1.8.71,5.22-.02,7.11Z"/>
  <path d="M113.02,186.05c.27-.17-.23-1.08.58-.87v3.49c-1.99-1.69-4.65-1.05-6.98-.5v-2.99c.93,1.17,5.49,1.43,6.39.87Z"/>
  <path d="M125.57,102.84l-1.98-1.5c-.86,2.34-.93,4.22,1.99,4.49l.5-2.49v4.49s-3.52-1.8-3.52-1.8l.53-5.69c1.58-.33,2.44,1.08,2.48,2.5Z"/>
  <path d="M123.58,83.38c-2.04,3.4,2.64,3.15,2.49,5.98l-2.25-1.99-1.24.99c.42-1.08-1.05-5.23.99-4.98Z"/>
  <path d="M164.99,177.2c-.87-.61-1.59.28-2.24.3-.51.02-.95-.58-1.5-.59-.57-.01-2.03,1.34-3.24-.46,1.96-.06,3-.6,4.99.04l1.28-1.77-.52-1c-1.96,1-4.24.46-6.24-.01.32.93.88,2.56-.5,2.99l.23-4.04c2.04-.95,4.04-.15,6.01.06.8.08,2.07-1.16,2.03.52-.03,1.12-.63,2.64-.31,3.96Z"/>
  <path d="M65.71,162.23v-1.5s1.5,0,1.5,0l-.5,7.98-1.24-.99c-.96,2.28-2.93,1.8-4.98,2.5l-.26-1.51c-1.24-.57-.84.7-1.08.86-.41.28-6.4-.37-6.68-.83l.78-7.52,2.5,2.49.53-.96,1.45.47-.99-1.99c1.39-.16,2.73-.12,3.27-1.53l5.71,2.52ZM64.21,162.23c-.6.15-6.39-1.21-5.98.74.13.65,1.46.91,2.1.67l3.88-1.4ZM65.71,163.73c-3.99.82-7.87,1.27-11.97,1,.2,2.26.53,3.87,3.24,4,2.19-.36-2.13-1.28-1.74-2,2.5.77,4.35,1.5,6.98.5l.24,1.49c2.2-1.02,3.01-2.62,3.25-4.98Z"/>
</svg>