<?xml version="1.0" encoding="UTF-8"?>
<svg id="Layer_1" data-name="Layer 1" xmlns="http://www.w3.org/2000/svg" viewBox="0 0 201.75 250.64">
  <path d="M14.98,198.55l24.42-28.72c6.5-7.22,9.23-17.23,18.49-21.54l-.04-75.72c1.52-.54,1.97-1.4,3.63-1.93,3.99-1.27,8.48-.91,12.62-1.36,1.14-.12,13.72-2.02,13.73-1.25-4.4,1.43-9.16,1.24-13.72,1.75-1.84.21-3.67.79-5.5.98-2.33.25-7.67-.87-8.53,1.99l.31,74.37,16.96-3.5-5.29-.94c-1.21-1.6-1.57-5.82.09-7.01s4.21.29,5.46-1.53l.24,3.49-1.2-1.04c-3.32-.18-5.28-.09-4.81,3.8.27,2.26,3.3,2.2,5.2,1.74.59-.14,0-1.22.81-1.01v2.49c1.76-.2,10.47-2.01,10.91-3.31l.57-72.05c.87-.12.47,1.13.49,1.74.74,17.95-.45,36.41-.02,54.43.03,1.18.5,2.27.54,3.45.13,4.07-.14,8.18-.02,12.25l3.42-1.81c-1.09-5.41,2.4-10.75,3.02-15.45,1.66-12.57-2.78-30.84-3.94-43.88-.28-3.09-.37-6.92-.04-9.92l-2.46-1.3c2.21.75,4.46-.96,6.16-.97,2.56-.01,5.94,1.61,8.08,1.94,8.4,1.29,18.29,1.24,26.91,2.02,4.37.4,8.83.86,13.15,1.57l-.45,73.47c.17.73,4.77,1.13,5.86,2.47,1.66,2.03-1.09,5.18,4.07,5.41,1.28,6.84-7.94,8.38-12.56,11.01-3.28,1.87-5.36,4.57-8.49,6.47l-20.29,8.4c4.8-4.83,12.2-5,17.97-8.22,4.94-2.76,9.12-6.89,14.27-9.68,2.2-1.19,4.7-1.2,6.67-3.31,2.25-2.41,2.66-5.77-1.62-4.62-1.07.29-7.14,3.49-8.69,4.29-6.38,3.26-13.46,9.25-19.77,11.66-3.24,1.24-7.28,1.76-10.7,2.77-2.19.65-4.52,2.09-6.36,2.62-.87.25-1.04-.42-.5-1,2-2.13,14.82-4.14,18.56-5.89,4-1.87,8.02-5.36,11.88-7.58,3.65-2.1,11.21-4.9,13.91-7.05,4.08-3.26-.74-6.37-4.42-6.46-6.17-.15-9.47,3.24-14.38,5.62-8.18,3.96-20.18,6.6-29.14,8.28-5.26.99-12.37-.04-17.69-1.03-.55-.1-1.98-.1-1.89-.84,3.48-1.46,6.68-3.55,10.14-5.09,4.5-2.01,13.44-4.2,16.77-6.68,2.92-2.17,6.25-7.95,1.66-10.08-5.94-2.77-20.85,5.08-27.47,6.73-10.58,2.64-23.81,1.82-31.3,11.61-1.28,1.67-1.89,3.67-3.12,5.37-9.78,13.5-20.88,25.99-31.81,38.56,4.36,10.84,11.06,20.88,19.97,28.45,3.9-7.27,7.04-14.95,11.52-21.91,9.89-15.37,18.24-21.6,37.39-21.03,5.39.16,8.9,1.73,14.47.05,3.69-1.12,7.19-4.19,11.2-4.01l-9.13,4.58c-9.14,3.12-17.85-.62-27.48.96-20.64,3.39-28.34,25.93-36.66,42.21l.16.65c9.67,7.5,21.22,12.26,33.19,14.74,9.56,1.98,19.28,2.31,28.95,3.23.13.13-.27.64-.49.75-1.05.52-10.36.37-12.25.26-54.52-3.02-76.2-37.75-81.98-88.17C.17,122.04-.27,57.73,26.69,27.36,50.95.02,96.14-1.4,129.8,4.56c56.52,10.02,67.27,54.17,69.23,104.92,1.61,41.84.36,104.04-41.38,127.26-14.69,8.17-35.89,12.26-52.64,12.21-.7,0-4.23-.63-4.23-1.24.6-.91,1.32-.71,2.21-.77,22.41-1.61,41.53-1.98,60.59-15.74,32.22-23.26,35.48-80.4,34.49-116.76-1.42-52.07-12.68-100.81-72.18-108.96C93.4,1.02,48.64,2.33,26.46,30.12,1.02,62,1.4,131.19,7.57,169.77c1.58,9.9,4.01,19.37,7.41,28.78ZM143.16,72.81l-38.39-3.02c.31,3.66,1.08,2.46,2.76,3.97,1.18,1.06,2.14,4.26,2.18,5.81.15,5.96-3.84,16.17-4.43,22.91-.4,4.55-.45,13.42.04,17.91.54,4.84,3.31,10.02,2.46,15.26,5.24.47,6.85,4.81,3.89,9.17-.85,1.25-3.7,3.29-3.89,3.72-.25.54-1.84,4.22-1.91,4.45-.41,1.42-.15,4-.6,5.63,7.14-1.22,14.5-2.58,21.13-5.56,5.68-2.56,10.53-6.71,17.23-6.97l-.47-73.29ZM59.37,148.14v-75.36c-1.12.29-.95,1.34-1.02,2.22-.37,4.56.48,9.12.55,13.48.27,17-.58,33.96-.54,50.95l1.02,8.71ZM95.29,153.64l-5.41,2.07-.03,4.36,5.43.55c.49-2.41-.97-4.84,0-6.98ZM88.8,159.62v-3.49s-4.48,2-4.48,2c-1.31,1.34,4.1.99,4.48,1.49Z"/>
  <path d="M71.84,130.67c-1.84-.09-1.61,2.41-1.99,3.74-.67.82-.53-.6-.52-1,.09-2,2.08-8.37,3.65-9.37,5.32-3.39,6.99,7.55,2.88,8.91-2.14.71-4.07.22-4.03-2.27ZM72.46,131.05c3.99,2.42,6.83-2.77,3.88-5.63-3.99-1.32-5.62,2.36-3.88,5.63Z"/>
  <path d="M77.83,87c-.3,1.41-2.57,3.09-4.13,2.67-3.17-.86-2.29-6.95-2.35-9.41,2.11.92,4.57.76,6.48-.5-.3,2.13.42,5.27,0,7.24ZM77.33,81.77l-5.49.49c-1.35,8.3,6.81,6.96,5.49-.49Z"/>
  <path d="M74.88,102.68l-1.01-3.73-2.51.77v-2.99c1.11,1.19,4.12.86,5.66.51.6-.14,0-1.22.82-1.01l-.24,5.49-2.71.96Z"/>
  <path d="M77.82,117.2c-3.02-.51-3.54,3.73,0,2.99v2.5c-1.53-.85-3.29-4-5.36-3.17-.8.32-.31,1.29-1.11,1.17v-3.99s1.66,1.44,1.66,1.44l4.81-3.94v3Z"/>
  <path d="M77.83,104.22v8.98h-1.5c3.09-5.08-.95-3.42-4.46-3.46l-.53,1.21v-3.74s.82,1.01.82,1.01l4.7-.23.42-2.47-1.44-1.3h1.99Z"/>
  <path d="M77.82,94.24c-.83.15-.49-1.24-1.2-1.38-.82-.16-4.5.56-5.27,1.38v-2.99c1.84,1.75,4.64.66,6.48-.5v3.49Z"/>
  <path d="M116.61,95.85c6.61-1.2,11.8,1.45,13.75,7.97s2.17,20.68-.55,26.7c-4.15,9.18-16.04,7.68-19.28-1.87-2-5.89-2.12-23.1.81-28.59.99-1.86,3.12-3.82,5.27-4.21ZM127.54,99.9c-3.16-3.38-9.85-4.96-13.55-1.68-5.26,4.67-4.92,23.51-2.88,29.84,2.84,8.82,14.34,10.83,18.2,1.46,2.12-5.15,2.1-21.08.14-26.29-.35-.92-1.26-2.63-1.91-3.33Z"/>
  <path d="M126.21,115.2v6.49s-1.48-.99-1.48-.99c.19,1.78-2.27.55-3.5,1.5v-1.51c-1.44,1.06-4.21,1.74-4.5-.49l-1.25.5.26-6c.84-.23.24.96.78,1.04,1.2.18,3.11-1.76,5.03-1.38s2.87,2.72,4.65.84ZM125.22,117.7c-1.42.87-8.92-.7-8.97.74,0,.12,1,1.99,1.12,2.11,1.64,1.64,1.96-.22,2.1-.25.68-.16,2.17.11,3-.12l-.74,1c2.4.44,3.23-1.4,3.49-3.49Z"/>
</svg>