<?xml version="1.0" encoding="UTF-8"?>
<svg id="Layer_1" data-name="Layer 1" xmlns="http://www.w3.org/2000/svg" viewBox="0 0 201.75 250.64">
  <path d="M3.91,129.53c.11,18.86,1.65,38.78,6.63,57,8.7,31.82,27.82,51.7,60.61,58.14,8.91,1.75,17.39,1.68,26.25,2.68.48.05,1.87.22,1.78.95-20.21,1.55-44.96-3.35-61.52-15.55C2.2,206.62.58,145.34,2.41,105.32,4.54,58.73,16.66,13.94,68.67,4.42,99.57-1.23,145.6.39,170.04,22.48c29.31,26.5,30.82,81.43,29.45,118.3-1.19,31.83-8.3,73.6-36.48,92.76-14.95,10.16-41.63,16.56-59.59,15.29-.96-.07-1.81-.28-2.72-.53-.15-1.3.02-.79.73-1,3.62-1.12,8.6-.22,12.49-.49,28.09-1.98,53.14-10.74,67.5-36.28,13.61-24.22,16.13-53.64,16.57-81h-37.16c-1.77-.26-2.3.95-3.15,1.45-1.45.87-3.11.21-2.61,3.23l1.01.81c-1.35-.28-1.16,1.33-1.03,2.28.16,1.24,1.11.3,1.04,1.21-.4.01-1.04.17-1.25.49-.99,1.47.24,11.92-.24,14.49h1.99s-1.92.57-1.92.57c-.09,1.18-.66,3.2.92,2.93v.48c-.6,0-1.08.34-1.43.81-1.87,2.51-3.19,7.66-5.04,10.43l.99.74c-1.04.03-2.22,1.34-2.48,2.26-.69,2.42,4.65-1.98,4.98-.27l-5.85,2.13c-.83,2.8-2.14,4.45-3.62,6.85.79.62,3.43-1.98,3.99-.5-3.15,1.12-6.53,1.29-5.49,5.47-1.72.39-3.43.91-5.21,1.04-19.17,1.42-40.05-1.12-59.4,0-11.45-2.32-25.26,1.29-36.4-.01-1.41-.16-2.41-.59-3.18-1.83l-.05-55.08H3.91ZM37.34,129.03v-34.19c0-.19,1.35-3.08,1.57-3.42,1.6-2.53,5.61-4.53,7.92-6.55,5.22-4.58,9.93-10.02,16.23-13.21,26.38.71,52.89.64,79.27-.04,2.54-.07,7.81-.39,10,.02.75.14.77.37,1.19.8,2.24,2.27.93,9.5,1.03,12.94.33,11.82-.03,23.69.54,35.39.13,2.57-.13,5.19-.02,7.76l42.9.5c.13-34.18-1.72-81.39-29.42-105.56C146.5,4.24,108.52,1.63,80.49,4.27,20.9,9.89,6.97,53.31,3.89,106.3l.02,22.23,33.43.5ZM41.33,92.1h41.65l16.21-18.46c-10.38-.22-20.81.26-31.2.02-2.07-.05-4.46-1.32-6.49-.05l-20.18,18.49ZM151.82,73.64c-12.06.93-25.23-.69-37.41,0l-16.21,18.47h41.16c4.41-6.33,8.47-13.07,13.72-18.72-.39-.82-1.12.24-1.24.25ZM152.08,141.01c2.1-4.28.58-8.73.6-13.23.03-9.96.11-19.72.09-29.53-.01-7.35.39-14.77.31-22.12l-8.52,11.19c-.57,3.24-.79,1.61-1.71,2.24-3.55,2.4-1.98,5.42-2.02,8.78-.28,24.52-1.14,50.42-.2,74.84.1,2.57-.12,5.18-.02,7.75l6.08-10.63,1.4-5.83.99.99c.32-2.89,3.37-6.37,3.88-8.84.48-2.3-.33-4.04-.28-5.88.09-3.27.76-6.83.39-10.24l-.99.51ZM97.7,93.6v12.73l-1.25.75h-13.72s0-13.47,0-13.47h-43.4v90.33c2.13-.28,4.12.41,6.21.52,27.74,1.48,60.34.64,88.34,0,1.79-.04,3.35-.54,5.21-.02v-91.33s-41.4.5-41.4.5Z"/>
  <polygon points="177.51 136.52 161.69 143.39 159.06 144 169.55 139.28 177.51 136.52"/>
  <path d="M173.52,134.53c-.02.74-1.41.95-2.02,1.22-3.67,1.61-7.59,3.16-11.44,4.26l7.99-3.73,5.48-1.75Z"/>
  <path d="M175.51,141.01l-10.84,4.87-2.63.61c.02-.74,1.41-.95,2.02-1.22,3.67-1.61,7.59-3.16,11.44-4.26Z"/>
  <polygon points="173.02 146 165.02 149.72 161.05 150.98 170.04 146.76 173.02 146"/>
  <path d="M157.06,178.44c-.02.74-1.41.95-2.02,1.22-2.34,1.02-4.97,2.19-7.45,2.77l6.49-3.23,2.98-.75Z"/>
  <path d="M46.31,70.14c-2.79-1.16-6-3.41-8.44-5.28-1.56-1.2-3.41-2.58-4.53-4.19.84-.17,1.32.41,1.94.8,3.64,2.27,7.87,5.81,11.03,8.67Z"/>
  <path d="M42.32,77.62c-4.17-.78-8.51-1.42-12.58-2.63-.79-.23-2.65-.48-2.88-1.35,4.36.77,9.63,1.51,13.78,2.92.65.22,1.52.14,1.68,1.06Z"/>
  <path d="M63.28,58.41c-.07.42-.56,1.45-1,1.25v-12.23c0-.3.7-1.13.5-1.74h.49c-.43,3.9.59,8.98,0,12.72Z"/>
  <polygon points="52.3 61.16 49.2 57.53 43.83 48.68 45.23 50.02 52.3 61.16"/>
  <path d="M76.25,52.18c-1.31,2.66-2.27,5.97-3.75,8.49-.16.28-.47,1.92-1.24.98-.24-.29,2.39-6.09,2.8-6.92.38-.76,1.07-2.83,2.18-2.55Z"/>
  <path d="M84.61,117.68c16.62-2.28,19.79,9.23,19.1,23.1-.46,9.3-3.47,16.22-13.8,17.13-15.45,1.36-18.58-11.46-17.64-24.13.61-8.29,3.26-14.85,12.34-16.1ZM83.6,118.67c-6.9,1.07-9.81,7.82-10.34,14.11-.82,9.84-.54,21.95,11.44,23.97,17.24,2.92,19.05-11.67,18-25-.85-10.81-9.01-14.65-19.1-13.09Z"/>
  <path d="M136.11,97.09v30.94l-1.02-4.22.02-26.22h-3c.76-1.77,2.7-.77,3.99-.5Z"/>
  <path d="M55.79,180.43l-7.94.96c-.6-.91-.88-6.28-.29-6.45,1.16-.33.71,1.07.74,1.74.05,1.25-.04,2.51,0,3.75h7.48Z"/>
  <path d="M89.21,134.52c.13.11,0,.93,1.13,1.61,1.4.85,4.16,1.63,5.86,1.88-1.48,2.17.21,3.45-.51,5.48-1.79-1.93-3.39.83-5.98,0,.76-1.23,3.05-.89,4.13-1.96.58-.57.74-1.73.85-2.52-4.14.49-8.36.92-12.47,0,.15,3.17,2.24,3.45,4.99,3.74-.79,1.16-3.15.78-4.13.23-.58-.33-.05-1.39-1.36-.98l-.49.99c-1.07-2.23.21-4.16,0-6.48,1.26-.62.83.98,1.3,1.03,1.31.16,5.42-1.93,6.18-1.03l-.5,2.49c1.07-.43,1.37.29,1.74-1.01l.74,1,.5-1.49-1.94-.05-1.05-2.7.98-.24Z"/>
  <path d="M91.71,147l-1,2.49c1.54.26,2.05-.31,2.49,1.5-1.4-.29-3.45-.74-3-2.49l-1.99,1.49v-1.99s3.49-1,3.49-1Z"/>
</svg>