<?xml version="1.0" encoding="UTF-8"?>
<svg id="Layer_1" data-name="Layer 1" xmlns="http://www.w3.org/2000/svg" viewBox="0 0 201.75 250.64">
  <path d="M165.8,93.18l-.55,55.67,1.06.98c.01.47-.88,0-1.02.57-.07.3-.04,5.14,0,5.91.09,1.68,1.37-.44,2.02.51l-2.03,1.08c.74,1.75-1,6.65,1.02,6.67v.49c-1.66.42-4.03,2.23-5.26,3.47-.93.94-1.22,2.33-1.73,2.76-.63.53-2.07.49-2.95,1.04-.59.37-4.88,4.13-5.02,4.46l.99.74c-3.81.36-6.04,3.74-8.97,5.75l.99.74c-2.85.28-5.41,2.9-7.5,4.78-.92.83-1.63,1.42-2.94,2.5-2.53,2.07-3.96,3.6-6.48,5.49-.55.41-5.25,4.44-5.03,4.7l1,.5c-2.93.45-6.35,3.26-8.46,5.28-.88.85-.23,2.42-3.23,2.19l-73.86-35.41c-.58-4.39-.08-8.85-.22-13.25-.26-8.22-.91-16.7-1.04-24.91-.17-11.02-.43-23,.02-33.96.02-.61-.38-1.86.49-1.74l2.55,73.31,71.28,33.49-.05-77.8-31.86-12.03-.25,13.97c-2.3-2.06-6.25-2.48-9.3-3.67-1.46-.57-2.95-1.16-4.31-1.92l-.19-13.79-26.35-11.06c9.56,1.27,18.08,7.27,27.57,9.38l50.09-27.27,2.66-2.07c-5.62-1.57-11.25-3.21-16.85-4.85-1.63-.48-2.9-1.44-4.67-1.82-7.09-1.49-12.16,3.24-18.21,6.09-11.69,5.51-23.39,10.97-34.76,17.13l-6.82,2.16c2.87-3.28,7.42-3.97,11.15-5.81,14.65-7.24,29.16-15.12,43.97-21.91,1.92-.05,3.79.43,5.63.88,22.24,5.44,43.75,15.15,65.95,20.89l1.5-.29ZM162.81,94.68l-30.14-8.99c-16.33,9.71-33.32,18.43-49.51,28.36-.47.29-2.89,1.3-2.16,2.07l31.56,11.39,50.25-32.84ZM162.81,119.64c1.94-7.26.7-15.44.75-22.96-2.03,2.44-9.1,4.81-10.72,6.74-.44.52-.53,1.09-.51,1.74l-.74-.99-12.65,7.56-.08,1.92-.74-.99c-1.31,1.12-3.45,1.36-3.25,3.49l-.74-.99c-1.91,2.21-6.56,2.85-6.74,5.98l-.74-.99c-.51.68-1.98.99-2.42,1.46-.56.59-.23,1.42-.33,1.54-.05.06-.76-.47-1.45-.25-1.13.36-2.78,1.89-2.54,3.24l-.74-.99-5.99,3.99c-.92,7.7-.23,15.43-.23,23.23,0,15.81-.58,32.06-.52,47.89,0,1.96.99,4.53.5,6.74l50.12-42.93.29-30.21c-.03-2.68-.2-5.82-.07-8.47.1-2.01.81-3.94.54-5.98l-1,.25Z"/>
  <path d="M173.61,25.98c25.14,25.86,26.67,77.86,25.64,111.89-.85,28.09-4.96,60.74-22.98,83.31-16.76,20.98-46.66,28.28-72.58,27.21-.61-.02-1.85.38-1.74-.49,11.17-1.73,22.59-1.44,33.63-4.03,25.76-6.06,43.66-22.5,52.4-47.39,3.27-9.31,5.22-20.07,7.25-28.76.57-2.45.34-6.04,1-8.64l-1.49-.5c2.14-.11,2.37-4.68,2-6.17-.14-.59-1.22,0-1-.81l1.53-.27c-.72-2.95.37-5.69.48-8.45,1.48-35.74.23-88.7-25.7-116.06C149.78,3.3,106.96,1.67,76.76,4.85,10.48,11.82,2.33,77.67,4.15,132.38c1.33,40.14,7.23,88.94,48.92,106.76,14.57,6.23,29.78,7.17,45.38,8.75-.23.74-2.57.94-3.25.99-19.54,1.51-46.37-6.75-61.34-19.47C2.99,203.16,1.1,142.43,2.65,104.88,5.07,46.46,24.89,5.05,88.73,1.86c29.08-1.45,63.7,2.34,84.88,24.13Z"/>
  <path d="M79,33.3l-7.48,9.24.73,1.17,20.48-1.46c17.74.87,33.15,3.75,49.31,11.09,1.9.86,11.57,5.6,12.48,6.48,1.7,1.65.78,2.36-1.18,2.21-24.76-15.26-53.56-19.77-82.31-16.25l10.24,8.47.24,1.25c-.52.64-.77.92-1.66.68-1.28-.35-8.26-6.77-9.85-8.14-1.15-.99-2.54-.38-2.48-3.01s3.42-4.64,5-6.5c1.78-2.11,3.13-6.49,6.49-5.23Z"/>
  <path d="M107.87,131.18l.59,31.15-1.02,2.22-1-32.69c-5.42-1.7-1.3-2.24,1.42-.67Z"/>
  <path d="M79,142.59c-2.77-2.93-9.53-8.08-13.65-5.92s-2.65,10.82-2.81,14.66c-.02.61.38,1.85-.49,1.74-.16-7.73-2.7-21.4,9.81-16.55,2.56.99,6.15,3.36,7.14,6.07Z"/>
  <path d="M82.49,162.3c-1.27,9.03-10.62,5.68-14.96,1l6.58,3.4c2.98.74,5.25.92,6.67-2.12.36-.77,1.22-3.64,1.22-4.27v-8.48c0-.67-1.05-2.55-.49-3.74h.49c-.5,1.07.5,2.7.5,3.24,0,3.24.42,7.98,0,10.98Z"/>
  <path d="M68.51,149.09c1.01.96.46,1.87.53,1.96.97,1.17,2.9-.07,3.22-1.47,1.48,1.11.46,1.88-.25,2.99,2.12-.87,3.45,1.31,5.48.5v1.99c-1.65-.55-3.36-1.1-4.98-1.75-1.8-.72-5.08-3.54-3.5.26h-1.49s0-4.24,0-4.24l.99-.24Z"/>
  <polygon points="166.8 180.02 152.82 186.24 146.35 188.5 151.85 185.77 166.8 180.02"/>
  <path d="M161.81,179.03l-5.5,2.72-7.46,2.76c.41-.81,2.15-1.35,3.01-1.73,3.17-1.38,6.62-2.88,9.96-3.75Z"/>
  <polygon points="181.26 161.56 173.27 165.28 169.3 166.54 178.28 162.31 181.26 161.56"/>
  <polygon points="147.34 194.5 141.84 197.22 135.37 199.48 140.87 196.75 147.34 194.5"/>
  <path d="M43.08,166.55l-.28,4.02,4.28,2.46c-1.01.09-4.36-1.35-4.75-1.98-.62-1.01-.41-6.03.75-4.5Z"/>
  <path d="M180.27,158.56c-.27.75-1.91,1.25-2.66,1.58-2.44,1.08-5.23,2.25-7.81,2.9.27-.75,1.9-1.23,2.66-1.58,2.43-1.11,5.19-2.36,7.82-2.9Z"/>
  <rect x="107.44" y="170.04" width="1" height="7.49"/>
  <polygon points="177.77 148.58 167.8 152.56 175.43 148.98 177.77 148.58"/>
  <path d="M182.26,154.07c-.02.74-1.41.95-2.02,1.22-2.34,1.02-4.97,2.19-7.45,2.77.41-.81,2.15-1.35,3.01-1.73,2-.88,4.31-1.87,6.47-2.26Z"/>
</svg>