<?xml version="1.0" encoding="UTF-8"?>
<svg id="Layer_1" data-name="Layer 1" xmlns="http://www.w3.org/2000/svg" viewBox="0 0 201.75 250.64">
  <path d="M4.45,139.21c1.28,25.87,3.72,52.65,18.35,74.73,11.61,17.53,27.82,27.08,48.42,30.92l27.53,3.65c-21.76,1.83-47.98-4.33-64.86-18.7C11.12,210.41,3.59,172.14,2.44,143.48.96,106.46,1.43,51.5,29.64,23.91,54.46-.37,101.65-1.11,133.77,5.1c62.34,12.05,67.32,78.62,65.77,130.89-.86,29.05-4.57,62.5-23.48,85.81-17.26,21.27-48.02,27.94-74.32,26.71l7.74-1.49c48.34-.56,73.93-23.02,83.91-69.28,7.58-35.17,7.7-98.24-7.97-130.96C167.73,9.84,131.48,2.76,93.49,3.94,49.45,5.3,22.33,19.78,10.58,63.74c-6.5,24.31-7.63,49.93-6.13,74.98l37.92-.5-7.98-62.88,1.01,4.48h1.98s.25-2.99.25-2.99c.38,0,.97,4.44,2.75,2.68l.48-1.67.46,1.79c.85,1.08,5.82,1.51,5.28-.8l.51,1.53c1.86-.76,4.91.97,5.47-1.02,6.68,3.05,22.85.68,30.92.47,1.12-.03,2.45-.21,3.26.78-16.91,1.09-33.99,1.21-50.88-.25.19,3.83,1.49,7.45,1.99,11.23,2.62,19.87,3.44,41.81,7.05,61.32.23,1.27,1.69,7.47,2.66,7.62,6.26.06,12.62,1.06,19,.7,3.17-.18,6.41-1.38,9.69-1.04l2.01-8.96-.5,3.99,1.5.5c-2.09.26-1.86,2.64-2.52,4.22l1.03.53c-1.61.37-.98,1.77-.96,3.21l1.46.28c-1.7.68-1.65,1.5-1.5,3.24.59.68,9.21-4.63,10.98-3.74-1.34.94-11.08,4.29-11.39,4.82-.7,1.19-.18,2.82,1.42,2.66-1.41.66-1.72,1.08-1.5,2.74l4.98-1.49-4.98,2.75,1.15,1.16,2.84-.91c-1.53,2.06-5.44,1.69-2.99,4.98-2.21.79-2.13,2.49-4.65,3.59-4.4,1.93-7.34.9-11.54.89-5.34-.02-9.55,1.81-13.24-3.23-2.8-3.82-1.11-12.93-1.51-17.96-.37-4.69-2.09-9.9-2.85-14.62-.51-3.17-.4-6.46-1.14-9.6H4.45ZM74.8,173.66c-9.06,1.53-18.46,1.53-27.44-.5.38,1.96,3.84,1.63,4.39,2.1.39.34-.06,1.56,1.74,2.5,3.14,1.63,12.94,1.76,15.99-.19.69-.44,1.51-1.14,1.83-1.91-4.17,1.91-9.54,2.64-14.1,1.87-.96-.16-3.29-.98-3.86-1.87,2.19-.52,4.82.51,6.73.49.85,0,1.66-.47,2.5-.5,4.11-.12,6.78.16,10.83-1.15.52-.17,1.51-.13,1.39-.84Z"/>
  <path d="M80.79,138.22h16.96l.48-46.08c3.59-2.83,18.93-4.05,19.96,1.42l-.49,44.66h9.98l.57-46.35c6.14-2.31,14.42-3.81,19.89.68v45.67c12.04.29,24.15-.38,36.19-.02,1.18.03,2.27.49,3.45.54,2.16.1,4.35-.11,6.51-.02.61.03,1.85-.38,1.74.5h-47.89l-.04,26.74,1.05.96c-1.53.38-.98,1.35-1,2.74.22.26,4.66-1.99,5.48-2.25.49-.16,1.6-.68,1.5.25l-6.92,2.56-.05,2.44c1.19-.45,2.27-1.34,3.47-1.77.47-.17,1.62-.66,1.51.26l-4.91,2.07c-.54.86.33,2.06.37,2.71.01.23-.82.14-.93.56-.59,2.3.34,4.67-3,5.65.72-2.36,1.55-2.48-.5-4.49.57-.47,2.19,1.88,2.49.24.25-1.38-1.77-2.49-1.49-2.73l1.5.24-1-2.5,1.02-.54-.02-.92-2-2.77,1.99.99c-.75-2.19,1.13-6.42-1-7.24,2.09-.84,1.16-3.2-.49-4.24l1.5.24c.7-3.25-1.13-2.54-2.5-4.74l2.49,1.49c-.46-2.4.74-6-.99-7.74-.18-.41.9-.06,1.02-.57.06-.24.03-4.6-.02-4.89-.21-1.31-1.55-1.68-2-2.77l1.99.99c.55-2.86-.41-2.75-1.99-4.49l1.99.99c.19-1.83.1-3.15-1.49-4.24l1.49.25c-.02-1.91.62-3.49-1.5-4.24,1.97-1.11,2.11-3.56,0-4.74l1.5.24c-.05-2.11,1.39-5.75,0-7.47-1.71-2.11-5.67-.71-8.25-.73-1.92-.01-3.76-.81-5.71-.52v42.42h-.5v-42.42c-2.38-.09-3.03,1-3.04,3.25-.08,18.02.14,36.28.07,54.42,0,2.26-1.28,3.56.47,5.98,1.27,1.76,5.17,2.77,7.25,2.77,1.26,0,5.02-1.66,4.74.46-3.68.91-7.15,1.59-10.83.11-4.97-1.99-2.58-10.95-3.12-15.26l-1-.81c1.55.22.93-1.34.99-2.5l-2.49.49,2.44-1.05.05-2.94c-.2-.28-5.42,3.11-6.49,2.25l6.41-2.83.08-2.91-2.99.75,2.91-1.33.08-2.91-2.99.75,2.99-2v-12.73h-9.23c-.71.44-.69.99-.77,1.72-.61,5.21-.15,13.99,0,19.51.04,1.39.73,2.42.77,3.46.06,1.42-.7,8.13-.25,8.75.73-.34,2.99-1.88,3.48-.51-6.45.64-1.82,8.23-6.98,9.99-.11-.14.54-3.04.67-3.37.2-.52,2.46-1.02.33-3.1l1.02-.34c-.51-2.49.71-4.28-1.52-6.16l1.5.24c-.72-3.29.97-7.86-1-10.48,2.95-.9-.7-4.06-.5-4.23l1.5.24.05-9.48-2.05-2.24,1.99.99c.31-2.05-.15-3.06-1.49-4.49l1.5.24c.39-1.79-.56-2.5-1.5-3.74l1.5.24c.09-1.35.19-2.64-1-3.5,2.39-.73.33-2.99.25-3.98-.06-.7.31-1.63.31-2.5,0-2.01.05-3.7.19-5.99.03-.55.84-.91.68-2.35-.5-4.45-5.53-2.3-8.68-2.36-2.01-.04-7.93-1.64-8.96.47-.74,18.71.12,37.46-.23,56.17-.03,1.52-.73,2.78-.5,4.43.44,3.15,4.96,4.78,7.72,4.82.47,0,6.46-1.24,4.73.45-3.01,1.79-13.47,1.18-13.47-3.24v-39.68h-17.46l-.5,5.99-.49-4.73c3.28-19.79,4.2-39.97,7.98-59.65l-6.49,57.39ZM116.64,114.19c2.93-8.34-4.15-7.81-10.18-7.43-3.22.2-6.71-.03-7.2,3.81-.36,2.79,1.36,3.68,3.86,4.06,2.26.35,8.5.76,9.81-.81l3.7.37ZM142.74,113.88c1.1-.48,4.29,2.57,4.78-2.52.56-5.72-7.14-4.86-11.13-4.61-3.52.22-6.55-.11-7.11,3.89-.72,5.1,9.35,4.56,12.66,4.16.93-.11.7-.88.8-.92Z"/>
  <path d="M116.14,87.24c-3.34-.63-14.05,2.27-15.8-.77-.91-1.58-1-6.25,1.14-6.65,5.97-.08,17.65-2.37,14.65,7.42Z"/>
  <path d="M137.07,79.45c5.79-.1,10.99.57,9.34,7.88l-13.02.5c-4.24.58-4.54-7.44-1.45-8,.99-.18,4-.36,5.13-.38Z"/>
  <path d="M61.83,136.21c.05-.89,1.64-.41,2.51-.73,3.61-1.32,6.39-3.62,7.62-7.35.69-2.11,1.03-8.3.79-10.58-.6-5.74-5.52-11.07-11.59-10.74-10.71.57-11.6,9.97-10.82,18.7.31,3.44,2.13,6.62,5.06,8.42l5.44,2.29c-6.5,1.24-10.57-4.58-11.34-10.36-.91-6.8-1.01-14.22,5.51-18.18,4.59-2.79,12.45-2.27,15.81,2.34,5.21,7.16,3.87,27.94-8.98,26.2Z"/>
  <path d="M183.56,83.81v.5h-29.44l21.45,4c.12.86-1.18.53-1.73.49-5.82-.43-12.79-2.25-18.62-3.36-.76-.14-2.59-.14-3.27-.31-.57-.14-2.14-.63-2.32-1.31h33.93Z"/>
  <rect x="102.24" y="115.76" width=".5" height="39.43"/>
  <path d="M58.83,74.34c.12.87-1.13.47-1.74.49-7.28.3-14.43-.81-21.71-.5,1.51-2.66,4.05-.64,6.24-.5,5.7.37,11.49.47,17.2.51Z"/>
  <polygon points="84.28 73.84 79.04 74.83 66.82 74.83 74.56 73.84 84.28 73.84"/>
  <path d="M172.58,92.8l-1.9.15-13.06-5.64c5.2,1.04,9.86,4.02,14.96,5.49Z"/>
  <polygon points="167.59 80.33 160.22 82.17 154.63 82.81 162.02 80.98 167.59 80.33"/>
  <polygon points="159.11 159.18 150.82 163.11 148.64 163.66 156.13 159.94 159.11 159.18"/>
</svg>