<?xml version="1.0" encoding="UTF-8"?>
<svg id="Layer_1" data-name="Layer 1" xmlns="http://www.w3.org/2000/svg" viewBox="0 0 201.75 250.64">
  <path d="M11.57,190.48c3.23,9.63,7.93,19.98,14.05,28.11,15.67,20.81,43.13,27.62,68.01,28.79l5.24.99c-23.76,2.17-50.01-5.03-67.85-21.2C1.24,200.19.46,140.23,2.07,102.86c1.37-31.78,8.4-66.94,36-86.27C65.13-2.36,116.68-1.03,147.15,8.67c38.49,12.26,51.15,56.24,52.52,92.69,1.33,35.25,1.62,92.1-22.72,120.07-16.74,19.24-42.48,26.89-67.34,27.46-1.97.05-3.91-.07-5.76-.77,5.27-2.43,11.66-1.3,17.2-1.75,27.67-2.26,55.27-17.87,65.85-44.42,9.02-22.66,11.47-49.65,12.23-73.86l-67.35.5v67.38c.26.34,6.72-3.58,7.99-2.74l-7.92,3.31-.07,2.93,10.48-3.24-10.4,4.32c-.07,1.37-.76,3.3.92,3.66l-1.02.57v3.35s1,.33,1,.33l-1,.81c.35,2.35-.61,6.05-3.24,6.66-.61.14-1.61.18-1.23-.73.59-.68,2.99-2.78,2.99-3.5v-70.12c-3.57.19-7.15.61-10.73.72-2.9.09-5.97-1.07-8.65.36l-.08,3.91c.21.29,5.1-4.02,6.49-2.74-2.97,2.01-7.69,2.79-6.49,7.24,2.1-1.59,4.13-3.84,6.98-3.99-2.5,2.59-7.53,3.51-6.98,7.98.36.48,4.28-3.89,5.48-2.75l-5.49,4.49v7.74l6.98-3.99c-2.28,2.74-7.89,4.17-6.98,8.48l7.98-4.49c-2.68,3.42-9.84,3.96-7.73,9.48l7.24-3.99c-.85,1.19-7.25,4.45-7.49,5.34-.26.97.18,2.55.01,3.64,1.53-.67,3.14-3.46,4.99-2.74l-4.92,3.31-.07,4.42,6.24-4.48.25.74c-.95.58-6.36,4.05-6.5,4.6-.25,1,.17,2.53.01,3.64l4.48-2.99c-2.22,3.06-5.59,3.21-4.48,7.98l2.49-1.25c-2.51,1.91-2.91,2.35-2.49,5.74l3.99-2.49c-2.05,3.07-5.08,3.01-3.99,7.48,1.97-1.39,3.94-3.75,6.48-3.99-2.32,2.55-7.42,3.65-6.48,7.98,1.02-.18,1.78-2.54,2.99-1.75-2.09,2.18-3.74,2.15-2.99,5.74l7.98-4.99c-1.1,1.75-8.13,4.85-7.45,7.17,3.17,3.18,8,1.35,11.69,1.31.45,0,3.46.21,3.25,1.24-2.76,1.55-5.84.41-8.68.3-2.56-.09-5.11,1.5-7.29-1.79-1.9-2.86-.94-4.69-.97-7.47-.28-26.04.15-52.1-.02-78.13-7.56.18-15.16-.23-22.72-.02-1.99.06-5.3,1.66-6.71-.48h29.43v-11.73c0-4.03,9.31-2.24,11.23-2.26,2.85-.02,7.08-1.41,9.7.29.42.27,1.52,1.66,1.52,1.97v10.98l67.35.25c-.24-18-1.56-36.27-4.65-54-5.9-33.84-24.4-59.04-59.12-66.13-26.58-5.43-58.47-6.39-83.9,4.09-2.76,1.14-15.04,7.26-16.21,9.24-.58.98-.57,3.32-1.49,5-1.21,2.21-4.93,3.51-4.2,6.11.78,2.78,10.42,1.52,12.79,3.46.79.82,1.64,8.67,1.15,9.12-.69.52-1.43.67-2.27.76-3.94.45-23.55-.87-25.08.62-.42.41-.68,1.76-1.12,2.37h25.94l-10.21,1.02-15.89-.04-.84,2.02h33.67c1.68,0,1.59-3,2-3l.02,3.02-2.56.93-33.31.12-3.3,8.17c.78.76,2.9-.63,2.49,1.24-3.73-.38-3.08,2.03-4,4.74,2.74.03,5.48-.38,8.26-.26,33.15,1.34,34.76,30.63,33.18,57.19-1.18,19.71-10.65,36.6-32.64,36.15-.4,0-1.91-.28-1.8-.97,14.17-.51,24.1-4.27,29.67-17.98,5.28-12.97,5.54-42.63.14-55.52-6.74-16.1-21.47-18.1-37.27-17.31l-2.51,15.45c10.27-2.56,24.18-.7,29.37,9.79,3.84,7.77,3.94,29.21.94,37.25-4.87,13.06-20.38,15.56-32.3,11.35l.58,15.14c.56,1.67,5.81,1.61,7.4,2.33.13.85-1.19.53-1.73.49-1.7-.14-3.41-.84-5.25-.49-.06.99.03,1.96.33,2.91s.33,1.38,1.41,1.59c2.54.49,11.04.21,14,.02,16.45-1.07,26.65-10.21,31.16-25.72,4.85-16.67,4.98-48.72-5.79-63.1-8.17-10.91-19.52-11.47-31.89-13.02-.91-.11-.81.19-.74-.99h7.23c1.53,0,6.08,1.18,7.84,1.64,23.51,6.11,26.81,26.84,27.31,48.04.7,29.34-6.73,54.95-41.16,55.15-1.37,0-8.85-1.31-9.2-1.01l2.73,14.49c.67,1.22,3.09-1.91,4.25-1.51l-3.75,2.97.72,2.8c2.49.41,5.11.65,7.26-.79l-.25,1h16.21s7.99-4.99,7.99-4.99c.66.26-.58,1.03-.8,1.2-1.74,1.44-3.71,2.74-5.93,3.3l1.49.99H9.58l1.49,4.75c1.43,1.1,16.87.92,19.73.76,20.1-1.11,31.92-8.87,40.07-27.29,10.9-24.64,10.79-79.06-3.21-102.45-3.53-5.9-7.6-9.83-13.02-13.92-1.38-1.04-4.79-2.33-5.14-3.84-.16-.69.03-.94.73-.73,3.68,1.07,13.8,10.28,16.48,13.46,4.44,5.27,7.39,15.89,9.18,22.75,4.6,17.57,4.84,36.09,3.14,54.04l.9.33c-1.67.39-.89,1.78-1,3.24h1.99s-2.44.55-2.44.55l-.05,2.94,2.5-.25-3.01,1.58c.09.89-.19,2.03,0,2.84.14.58,1.22,0,1,.81l-1.53.28.04,2.72h2.99c-.7.24-3.09.71-3.39,1.11-.31.43-1.22,4.14.39,3.39v.48c-1.88.19-1.96,2.48-1.99,4,.42.46,3.54-1.95,3.98-.5-3.41.64-5.45,1.89-5.98,5.5,1.74-.76,3.68-1.67,5.47-2.26.49-.16,1.61-.68,1.5.26-3.94,1.79-8.38,1.74-8.97,6.99.12.14,3.19-1.88,3.48-.51-1.3.37-3.48.87-4.46,1.78-.17.16-2.39,3.68-2.51,3.98s-.09.85.24.74c1.91-.95,4.23-2.1,6.23-2.75.49-.16,1.6-.68,1.5.25-2.46,1.34-6.58,1.97-8.73,3.5-.39.28-3.38,3.73-3.51,4.02-.27.6.29,1.35.23,1.43-.29.4-6.58,4.61-7.93,5.82-.5.45-.29,1.33-.88,1.72-1.26.84-13.47,4.98-14.85,4.98H11.57ZM3.64,140.02c11.53,4.14,26.13,2.99,31.26-9.8,3.11-7.74,3.28-28.89-.29-36.4-4.62-9.75-19.03-12.22-28.54-9.4-2.22,10.1-2.52,20.8-2.48,31.2l.5-4.49c1.73-.39,1.98,1.6,3.61,1.42,2.65-.29,6.2-2.1,7.62-4.41,1.91,3.46,5.97,2.83,8.99,4.98-.02-1.32,1.84-3.19,2.59-1.24.14.35-.24,6.65-.33,7.51-.08.75-.06,1.26-.78,1.72l-1.25-1.49c-1.38-.39-.84,1.04-2.09,1.63-.78.37-6.04.43-6.3.26-.33-.22-.31-1.62-1.32-1.4l-1.01,1.5-.48-1c-2.61,1.65-6.03,1.41-7.51-1.49l-1.04,1.43-1.2-.43c.29,1.96-.41,4.88,0,6.66.24,1.02.43-.71.44,2.58,0,3.04-.34,1.82-.48,2.96-.28,2.32.24,5.31.1,7.72ZM21.05,112.62l-5.24-.94c-3.25,3.95.96,2.19,3.42,2.95l1.82-2.01ZM23.64,116.68c.08-.15,3.24-1.79.17-2.08-1.45-.14-4.99.96-6.97,1.04-3.59.14-7.22-.43-10.75-1.02-.42,3,1.18,5.43,4.32,5.46,2.14.03,4.21-1.7,7.3-.96.4.1.13,1.6,2.98.88.56-.14,2.91-1.53,3.13-1.9.31-.51-.29-1.23-.19-1.41ZM130.31,132.58h-17.71c-2.16,0-1.74,6.49-1.18,7.91.88,1.41,4.53-1.87,5.91-1.92,1.24,1.13-3.25,1.62-2.99,2.5h15.96v-8.48Z"/>
  <path d="M129.81,111.12h-17.96c-.7-2.55-.94-5.62.32-8.03,1.2-.86,9.28-.44,11.42-.43,1.66,0,3.01-.87,4.86.09,2.32,1.21,1.05,6.11,1.36,8.37Z"/>
  <path d="M137.29,107.13l26.94,5c.12.86-1.18.53-1.73.49-7.27-.53-14.87-3.15-22.02-3.93-.55-.06-1.8-.45-1.68.43l26.93,10.98c-11.06-3.55-22.08-7.95-32.42-13.22l2.49.25-.99-.74c1.62-1.91,4.04-.99,6.17-1.31,5.76-.87,11.43-2.55,17.27-2.93l-19.95,4.49h46.4v.5h-47.39Z"/>
  <path d="M62.46,166.52c1.88-4.59,3.9-9.17,5.23-13.98,5.96-21.44,5.49-58.58-2.37-79.48-1.28-3.39-3.13-6.47-4.36-9.86,5.77,7.94,8.3,18.71,9.84,28.34,2.54,15.87,2.37,34.78.05,50.69-1.22,8.38-3.36,17.42-8.39,24.29Z"/>
  <path d="M52.98,172.51c14.08-15.72,13.99-38.18,14.45-58.16.03-1.21.56-2.3.56-3.47.01-2.46-.66-5.1-.54-7.99.03-.61-.38-1.86.49-1.74l1,11.23c-1.73,17.79-.05,42.07-11.99,56.89-.44.55-3.39,3.78-3.98,3.25Z"/>
  <rect x="126.31" y="142.56" width=".5" height="48.41"/>
  <path d="M115.84,211.44l8.23-4.5-4.24,3.99c2.52,0,5.02.28,6.98-1.49.37.84-1.41,2-1.74,2h-9.23Z"/>
  <polygon points="154.75 98.15 142.05 103.66 139.79 104.13 154.75 98.15"/>
  <path d="M117.83,156.04c.58.49-.44,1.38-.98,1.24l-5.5,3.25c-.19-1.09,1.57-1.87,2.34-2.4.56-.39,3.78-2.39,4.14-2.09Z"/>
  <path d="M21.56,132.07l1.49,1.01c-1.13.22-4.32-1.64-4.75-2.49-2.29-4.58,7.23-5.19,3.25,1.48ZM19.81,127.59c-1.25.38-1.18,4.11.94,3.45,1.84-.57,1.04-4.04-.94-3.45Z"/>
  <path d="M31.03,127.09l-.24.99-1.75-.49v1.49s1.5.25,1.5.25c-.89-.09-2.38.96-1.5,1.75.55.49,2.98-1.58,2.49.5h-3.49s.5-3.99.5-3.99c-2.44-.17-.77,2.83-1.99,3.49v-3.99s4.48,0,4.48,0Z"/>
</svg>