<?xml version="1.0" encoding="UTF-8"?>
<svg id="Layer_1" data-name="Layer 1" xmlns="http://www.w3.org/2000/svg" viewBox="0 0 94.97 96.88">
  <path d="M71.69,78.36l-48.45-.22-.49-43.92c2.45-4.32,11.43-2.01,15.53-2.93,1.48-4.85,3.87-14,10.59-12.63,5.19,1.06,5.84,9.22,7.84,13.11.85.51,6.28.29,7.77.26,1.95-.03,3.3-1.27,5.19.26,2.15,1.73,2.41,5.71,2.54,8.42.15,3.03-.52,5.78-.54,8.47-.09,9.73.1,19.46.02,29.18ZM54.22,31.5c-1.48-14.93-11.53-14.63-14-.28.12,1.1,12.31-.16,14,.28ZM70.19,36.49H24.77v39.13l45.42,1.25v-40.38Z"/>
</svg>